# xmcd
#
# Track frame offsets: 
#        182
#        11140
#        29697
#        43792
#        61570
#        73422
#        82815
#        99935
#        110465
#        127802
#        140465
#        150820
#        164712
#        188797
#        205092
#        226932
#        253582
#        275920
#
# Disc length: 4027 seconds
#
# Revision: 4
# Processed by: cddbd v1.5.2PL0 Copyright (c) Steve Scherf et al.
# Submitted via: ExactAudioCopy v0.95a5
#
DISCID=f20fb912
DTITLE=Various Artist - White Boy Blues
DYEAR=1900
DGENRE=blues
TTITLE0=Eric Clapton - Snake Drive
TTITLE1=Fleetwood Mac - Red Hot Mama
TTITLE2=Eric Clapton and Jimmy Page - Draggin' My Tail
TTITLE3=John Mayall and the Bluesbreakers - Telephone Blues
TTITLE4=Jimmy Page and the All Stars - Steelin'
TTITLE5=Jimmy Page and the All Stars - L.A. Breakdown
TTITLE6=Savoy Brown - Cold Blooded Woman
TTITLE7=Tony McPhee - You Don't Love Me
TTITLE8=Albert Lee - Crosstown Link
TTITLE9=John Mayall feat. Eric Clapton - On Top of the World
TTITLE10=King Biscuit Boy - Step back baby
TTITLE11=King Biscuit Boy - Neighbour, Neighbour
TTITLE12=Troyce Key and J J Malone - I Gotta New Car
TTITLE13=I gotta a new car - All My Money Gone
TTITLE14=The Mighty House Rockers - Blue Light
TTITLE15=Alexis Corner - Stormy Monday Blues
TTITLE16=Gary Moore - Bad news
TTITLE17=Todd Sharpeville - Can't Hold On
EXTD=
EXTT0=
EXTT1=
EXTT2=
EXTT3=
EXTT4=
EXTT5=
EXTT6=
EXTT7=
EXTT8=
EXTT9=
EXTT10=
EXTT11=
EXTT12=
EXTT13=
EXTT14=
EXTT15=
EXTT16=
EXTT17=
PLAYORDER=
